# xmcd CD database file
#
# Track frame offsets:
#	150
#	2470
#	24832
#	43240
#	62202
#	66760
#	100840
#	118197
#	143502
#	177600
#	188835
#	214270
#	218985
#	240310
#	252235
#	281500
#
# Disc length: 3814 seconds
#
# Revision: 0
# Processed by: cddbd v1.5.1PL0 Copyright (c) Steve Scherf et al.
# Submitted via: CDex 1.51
#
DISCID=e60ee410
DTITLE=Lonnie Plaxico - Emergence
DYEAR=2000
DGENRE=Jazz
TTITLE0=the mahayana (great vehicle) - interlude
TTITLE1=Transformation
TTITLE2=Delusion
TTITLE3=Emergence
TTITLE4=paramita (to arrive at the other side) - interlude
TTITLE5=Libertarian
TTITLE6=Changing Lines
TTITLE7=Emancipation
TTITLE8=Red Light District
TTITLE9=sokoni (from the sea) - interlude
TTITLE10=Equilibrium
TTITLE11=2 bass - interlude
TTITLE12=Inner Voice
TTITLE13=kalomo (the unexpected) - interlude
TTITLE14=Matrix
TTITLE15=oji (the gift bearer) - interlude
EXTD=YEAR: 2000
EXTT0=
EXTT1=
EXTT2=
EXTT3=
EXTT4=
EXTT5=
EXTT6=
EXTT7=
EXTT8=
EXTT9=
EXTT10=
EXTT11=
EXTT12=
EXTT13=
EXTT14=
EXTT15=
PLAYORDER=
